<svg width="0" height="0" class="hidden">
  <symbol xmlns="http://www.w3.org/2000/svg" viewBox="-21 0 512 512" id="share">
    <path d="M389.332 160c-44.094 0-80-35.883-80-80s35.906-80 80-80c44.098 0 80 35.883 80 80s-35.902 80-80 80zm0-128c-26.453 0-48 21.523-48 48s21.547 48 48 48 48-21.523 48-48-21.547-48-48-48zm0 480c-44.094 0-80-35.883-80-80s35.906-80 80-80c44.098 0 80 35.883 80 80s-35.902 80-80 80zm0-128c-26.453 0-48 21.523-48 48s21.547 48 48 48 48-21.523 48-48-21.547-48-48-48zM80 336c-44.098 0-80-35.883-80-80s35.902-80 80-80 80 35.883 80 80-35.902 80-80 80zm0-128c-26.453 0-48 21.523-48 48s21.547 48 48 48 48-21.523 48-48-21.547-48-48-48zm0 0"></path>
    <path d="M135.703 240.426c-5.57 0-10.988-2.903-13.91-8.063-4.375-7.68-1.707-17.453 5.973-21.824L325.719 97.684c7.656-4.414 17.449-1.727 21.8 5.976 4.376 7.68 1.708 17.45-5.972 21.824L143.594 238.336a16.03 16.03 0 01-7.89 2.09zm197.93 176a15.86 15.86 0 01-7.895-2.11L127.785 301.461c-7.68-4.371-10.344-14.145-5.972-21.824 4.351-7.7 14.125-10.367 21.804-5.973l197.95 112.852c7.68 4.375 10.347 14.144 5.976 21.824-2.945 5.183-8.363 8.086-13.91 8.086zm0 0"></path>
  </symbol>
  <symbol xmlns="http://www.w3.org/2000/svg" viewBox="0 0 512.001 512" id="comments">
    <path d="M255 202c11.047 0 20 8.953 20 20s-8.953 20-20 20-20-8.953-20-20 8.953-20 20-20zm70 20c0 11.047 8.953 20 20 20s20-8.953 20-20-8.953-20-20-20-20 8.953-20 20zm-180 0c0 11.047 8.953 20 20 20s20-8.953 20-20-8.953-20-20-20-20 8.953-20 20zm349.414 187.563c23.406 23.406 23.406 61.468.012 84.863-11.696 11.695-27.063 17.547-42.426 17.547s-30.73-5.852-42.426-17.547L299.785 384.883a19.98 19.98 0 01-5.008-8.348l-23.914-78.722a20 20 0 014.82-19.782 20.01 20.01 0 0119.657-5.304l80.722 22.359a20.006 20.006 0 018.793 5.121zM331.59 360.108l74.09 73.926 28.289-28.289-73.653-73.512-40.609-11.25zm134.55 77.75l-3.859-3.855-28.285 28.285 3.848 3.836c7.812 7.816 20.5 7.816 28.297.016 7.8-7.797 7.8-20.485 0-28.282zm-199.015-23.406c-3.695.16-7.438.242-11.125.242-32.16 0-63.121-5.988-92.02-17.797a20.026 20.026 0 00-15.343.09L57.57 435.43l30.684-72.684a19.998 19.998 0 00-3.488-21.074C55.48 308.773 40 269.41 40 227.848 40 124.27 136.898 40 256 40s216 84.27 216 187.848c0 24.562-6.031 49.222-17.93 73.289-4.894 9.902-.836 21.898 9.067 26.793 9.902 4.894 21.898.836 26.793-9.067 14.644-29.629 22.07-60.25 22.07-91.015C512 102.21 397.16 0 256 0 114.844 0 0 102.21 0 227.848 0 275.27 16.078 320.18 46.637 358.48L1.574 465.223a20 20 0 0026.203 26.203L156.707 437c31.445 11.746 64.809 17.695 99.293 17.695 4.266 0 8.598-.097 12.875-.28 11.035-.485 19.59-9.821 19.105-20.856-.48-11.036-9.835-19.618-20.855-19.106zm0 0"></path>
  </symbol>
  <symbol xmlns="http://www.w3.org/2000/svg" viewBox="0 0 512 512" id="like">
    <path d="M512 304c0-12.821-5.099-24.768-13.888-33.579 9.963-10.901 15.04-25.515 13.653-40.725-2.496-27.115-26.923-48.363-55.637-48.363H324.352c6.528-19.819 16.981-56.149 16.981-85.333 0-46.272-39.317-85.333-64-85.333-22.144 0-37.995 12.48-38.656 12.992A10.672 10.672 0 00234.666 32v72.341L173.205 237.44l-2.539 1.301v-4.075c0-5.888-4.779-10.667-10.667-10.667H53.333C23.915 224 0 247.915 0 277.333V448c0 29.419 23.915 53.333 53.333 53.333h64c23.061 0 42.773-14.72 50.197-35.264C185.28 475.2 209.173 480 224 480h195.819c23.232 0 43.563-15.659 48.341-37.248 2.453-11.136 1.024-22.336-3.84-32.064 15.744-7.915 26.347-24.192 26.347-42.688 0-7.552-1.728-14.784-4.992-21.312C501.419 338.752 512 322.496 512 304zm-44.992 26.325a10.719 10.719 0 00-8.917 7.232 10.688 10.688 0 002.816 11.136c5.419 5.099 8.427 11.968 8.427 19.307 0 13.461-10.176 24.768-23.637 26.325a10.719 10.719 0 00-8.917 7.232 10.688 10.688 0 002.816 11.136c7.019 6.613 9.835 15.893 7.723 25.451-2.624 11.904-14.187 20.523-27.499 20.523H224c-17.323 0-46.379-8.128-56.448-18.219-3.051-3.029-7.659-3.925-11.627-2.304a10.667 10.667 0 00-6.592 9.856c0 17.643-14.357 32-32 32h-64c-17.643 0-32-14.357-32-32V277.333c0-17.643 14.357-32 32-32h96V256c0 3.691 1.92 7.125 5.077 9.088a10.902 10.902 0 0010.368.448l21.333-10.667a10.65 10.65 0 004.907-5.056l64-138.667c.64-1.408.981-2.944.981-4.48V37.781c4.438-2.453 12.14-5.781 21.334-5.781C289.024 32 320 61.056 320 96c0 37.547-20.437 91.669-20.629 92.203a10.739 10.739 0 001.173 9.856 10.728 10.728 0 008.789 4.608h146.795c17.792 0 32.896 12.736 34.389 28.992 1.131 12.16-4.715 23.723-15.189 30.187-3.264 2.005-5.205 5.632-5.056 9.493s2.368 7.317 5.781 9.088c9.024 4.587 14.613 13.632 14.613 23.573.001 13.461-10.175 24.768-23.658 26.325z"></path>
    <path d="M160 245.333c-5.888 0-10.667 4.779-10.667 10.667v192c0 5.888 4.779 10.667 10.667 10.667s10.667-4.779 10.667-10.667V256c0-5.888-4.779-10.667-10.667-10.667z"></path>
  </symbol>
  <symbol xmlns="http://www.w3.org/2000/svg" viewBox="0 0 512 512" id="save">
    <path d="M166 332h180c8.284 0 15-6.716 15-15s-6.716-15-15-15H166c-8.284 0-15 6.716-15 15s6.716 15 15 15zm0 60h180c8.284 0 15-6.716 15-15s-6.716-15-15-15H166c-8.284 0-15 6.716-15 15s6.716 15 15 15z"></path>
    <path d="M507.606 84.394l-80-80A14.996 14.996 0 00417 0H15C6.716 0 0 6.716 0 15v482c0 8.284 6.716 15 15 15h482c8.284 0 15-6.716 15-15V95c0-3.979-1.581-7.794-4.394-10.606zM121 30h210v100H121V30zm270 452H121V272h270v210zm91 0h-61V257c0-8.284-6.716-15-15-15H106c-8.284 0-15 6.716-15 15v225H30V30h61v115c0 8.284 6.716 15 15 15h240c8.284 0 15-6.716 15-15V30h49.787L482 101.213V482z"></path>
    <path d="M166 452h180c8.284 0 15-6.716 15-15s-6.716-15-15-15H166c-8.284 0-15 6.716-15 15s6.716 15 15 15z"></path>
  </symbol>
  <symbol xmlns="http://www.w3.org/2000/svg" viewBox="0 0 512 512" id="exit">
    <path d="M255.15 468.625H63.787c-11.737 0-21.262-9.526-21.262-21.262V64.638c0-11.737 9.526-21.262 21.262-21.262H255.15c11.758 0 21.262-9.504 21.262-21.262S266.908.85 255.15.85H63.787C28.619.85 0 29.47 0 64.638v382.724c0 35.168 28.619 63.787 63.787 63.787H255.15c11.758 0 21.262-9.504 21.262-21.262 0-11.758-9.504-21.262-21.262-21.262z"></path>
    <path d="M505.664 240.861L376.388 113.286c-8.335-8.25-21.815-8.143-30.065.213s-8.165 21.815.213 30.065l92.385 91.173H191.362c-11.758 0-21.262 9.504-21.262 21.262 0 11.758 9.504 21.263 21.262 21.263h247.559l-92.385 91.173c-8.377 8.25-8.441 21.709-.213 30.065a21.255 21.255 0 0015.139 6.336c5.401 0 10.801-2.041 14.926-6.124l129.276-127.575A21.303 21.303 0 00512 255.998c0-5.696-2.275-11.118-6.336-15.137z"></path>
  </symbol>
  <symbol  xmlns="http://www.w3.org/2000/svg" viewBox="0 0 12 14" id="fire">
    <path d="M11.033 6.331a5.43 5.43 0 00-1.295-1.8l-.455-.417a.127.127 0 00-.203.052l-.203.583c-.127.365-.36.739-.69 1.106a.098.098 0 01-.064.031.086.086 0 01-.067-.023.092.092 0 01-.031-.075c.058-.94-.223-2.002-.84-3.157-.508-.959-1.216-1.707-2.1-2.23L4.438.023a.125.125 0 00-.187.114l.034.75c.023.513-.036.966-.177 1.342-.171.461-.418.89-.734 1.274a4.62 4.62 0 01-.742.72 5.51 5.51 0 00-1.567 1.899 5.434 5.434 0 00-.133 4.535 5.49 5.49 0 002.928 2.9 5.5 5.5 0 002.14.429c.742 0 1.46-.144 2.14-.427a5.445 5.445 0 001.747-1.167A5.408 5.408 0 0011.5 8.533c0-.762-.156-1.503-.467-2.202zM9.14 11.633A4.43 4.43 0 016 12.921a4.43 4.43 0 01-3.14-1.288 4.34 4.34 0 01-1.297-3.1c0-.68.153-1.331.454-1.937a4.42 4.42 0 011.263-1.53c.339-.26.646-.557.915-.888.39-.476.697-1.007.91-1.578a3.75 3.75 0 00.189-.726c.376.347.692.765.956 1.256.522.978.763 1.848.716 2.589a1.156 1.156 0 002.012.847 5.09 5.09 0 00.538-.713c.218.28.401.585.546.913a4.33 4.33 0 01.376 1.767c0 1.17-.461 2.272-1.297 3.1z" ></path>
  </symbol>
  <symbol xmlns="http://www.w3.org/2000/svg" viewBox="0 -87 472 472" id="video">
    <path d="M467.102 26.527a10.009 10.009 0 00-9.899-.18L348.906 85.48V50c-.031-27.602-22.398-49.969-50-50H50C22.398.031.031 22.398 0 50v197.422c.031 27.601 22.398 49.969 50 50h248.906c27.602-.031 49.969-22.399 50-50v-34.836l108.301 59.133A10.001 10.001 0 00472 262.94V35.125a9.997 9.997 0 00-4.898-8.598zM328.898 247.426c-.015 16.562-13.437 29.98-30 30H50c-16.563-.02-29.98-13.438-30-30V50c.02-16.559 13.438-29.98 30-30h248.906c16.559.02 29.98 13.441 30 30zM452 246.09L348.906 189.8v-81.534L452 51.98zm0 0"></path>
  </symbol>
  <symbol xmlns="http://www.w3.org/2000/svg" viewBox="0 0 477.867 477.867" id="photo">
    <path d="M426.667 68.267H51.2c-28.277 0-51.2 22.923-51.2 51.2V358.4c0 28.277 22.923 51.2 51.2 51.2h375.467c28.277 0 51.2-22.923 51.2-51.2V119.467c0-28.277-22.923-51.2-51.2-51.2zM443.733 358.4c0 9.426-7.641 17.067-17.067 17.067H51.2c-9.426 0-17.067-7.641-17.067-17.067v-10.001l68.267-68.267 56.201 56.201c6.664 6.663 17.468 6.663 24.132 0l141.534-141.534 119.467 119.467V358.4zm0-92.399l-107.4-107.4c-6.664-6.663-17.468-6.663-24.132 0L170.667 300.134l-56.201-56.201c-6.664-6.663-17.468-6.663-24.132 0l-56.201 56.201V119.467c0-9.426 7.641-17.067 17.067-17.067h375.467c9.426 0 17.067 7.641 17.067 17.067v146.534z"></path>
    <path d="M153.6 136.533c-28.277 0-51.2 22.923-51.2 51.2 0 28.277 22.923 51.2 51.2 51.2s51.2-22.923 51.2-51.2c0-28.277-22.923-51.2-51.2-51.2zm0 68.267c-9.426 0-17.067-7.641-17.067-17.067s7.641-17.067 17.067-17.067 17.067 7.641 17.067 17.067S163.026 204.8 153.6 204.8z"></path>
  </symbol>
</svg>

